<?xml version="1.0" encoding="utf-8"?>
<!-- Generator: Adobe Illustrator 19.2.1, SVG Export Plug-In . SVG Version: 6.00 Build 0)  -->
<svg version="1.1" id="layer" xmlns="http://www.w3.org/2000/svg" xmlns:xlink="http://www.w3.org/1999/xlink" x="0px" y="0px"
	 viewBox="0 0 652 652" style="enable-background:new 0 0 652 652;" xml:space="preserve">
<style type="text/css">
	.st0{fill:#86D2ED;}
	.st1{fill:#0C2074;}
</style>
<g>
	<g>
		<path class="st0" d="M574.9,390.9c-3.4-1.7-1.6-6.7,1.8-7.8c7.4-2.4,9.3-3.6,14.5-6.7c5.3-3.1,8.4-5.7,13.2-12.2
			c5.8-7.9,9.3-15.2,6.4-24.9c-0.3-1.1-1.6-3.1-3.6-3.1c-1.7,0-3.8,1.6-4.8,3.3c-3.5,6-1.3,15.5-8.2,19.3c-1.3,0.7-2.7,0.2-3.6,0.1
			c-4.3-0.5-8.7-2.9-13.6-1.2c-4.7,1.6-7.4,6.5-14.2,7.1c-6.8,0.5-8.9-2.1-11.3-6.6c-1.2-2.4-2-6.6-5.8-6.9
			c-2.8-0.3-6.3,0.5-10.2,3.5c-6.9,5.4-9.4,9.1-16.2,7.6c-7-1.6-3.9-11.3-7.9-12.9c-3.3-1.4-9.8,4.8-12.5,7.1
			c-2.7,2.4-7.5,7.5-9.9,9.2c-2.4,1.7-6.6,1.5-10.3-1.2c-9-6.5-11-12.9-10.9-16.2c0.2-4.8,6.8-6.7,8.2-6.9c2.7-0.4,4.3,0.5,4.8,1.8
			c1.2,3.1,0.3,12,4.1,12.8c3.1,0.6,9.6-5,15.9-11.5c2.6-2.7,4.9-6.4,7.4-8.9c3.1-3.1,6.3-4.8,8.1-4.7c3.2,0.1,5.1,2.3,5,6.3
			c-0.1,2.1-1.7,7-1.6,11c0.2,3.2,0.6,6,3,6.4c7.3,1.2,15.9-13.1,17.9-15.7c2.3-2.9,8-4.7,11.1-3.5c3.3,1.2,5.4,5.2,5.6,8.7
			c0.2,3.4-0.4,8.3,2.6,10c3.8,2.2,10.5-0.6,17.3-3.4c3.7-1.5,7.3-0.8,10.5-1.8c7.3-2.4,4-17.5,14-21c3.7-1.3,8.4-1,10.6-0.1
			c5.4,2.1,6.6,8.4,7.1,10.9c0.3,1.7,3.8,11.1-6.8,27.6c-5.1,7.9-10.9,13.5-21.5,19.7C585.8,389.4,579.3,393.1,574.9,390.9
			L574.9,390.9z M430,385.9c-0.1-2.5,5.4-28.9,5.7-31.8c0.1-1-2.4-1.2-4.4,1.1c-3,3.3-7.6,10.8-17.5,9c-5.5-1-7-5.5-7.6-7.1
			c-0.5-1.4-1-5-2.5-5.1c-1.8-0.1-4.2,2.5-5.2,4.9c-1.2,3.1-2.4,6.3-4.7,7.4c-2.8,1.3-10.1,1.6-14.1-2c-1.8-1.7-4.6-6.6-1.9-10.8
			c2.8-4.3,6.3-8.2,10.3-11.5c3-2.4,8.6-4.3,11-3.8c3,0.6,4.1,2.2,5.9,2.2c1.2,0,7.2-0.6,7.8,2.2c1,5-0.2,11.8,1.6,14
			c2.5,3,6,2.6,8.5,0.7c7.8-5.9,12.7-18.1,24.3-19.7c2.2-3.4,12-25.6,17.4-31.2c5.3-5.3,12.4-2.8,14.6-0.3c4.8,5.5,2.4,9.8-3.4,11.6
			c-5,1.6-8.2,4.4-11.4,8.4c-8.9,11-14.1,20.6-18.4,33.4c-3.4,9.9-4.3,18.4-7.7,28c-0.2,0.7-0.5,1.7-1.1,2.2
			C436.3,388.4,430.2,391.3,430,385.9 M388,355.9c-8-1.1,0.8-8.9,3.7-10.3c1.4-0.7,6-1.1,6.3-0.2C398.9,347.5,391.3,356.4,388,355.9
			 M316.4,373.4c-1.4-4.3,1-9.4,2.5-11.4c2.1-2.8,4.5-5.3,7.2-7.5c2-1.7,6.9-5,10.9-8.2c2.9-2.4,5.3-4.9,5.7-5.7
			c0.6-1.1,0.7-3.4-0.3-4c-0.5-0.3-1.7,0.3-2.6,0.7c-3.1,1.4-8.9,4.9-13.7,5.8c-2.7,0.5-6-0.2-7.5-1.6c-1.3-1.3-2.2-3.1-0.3-5.1
			c2.2-2.2,17.3-7,18-7.2c1.9-0.5,4.7-0.8,6.4-0.8c3.9,0,5.5,2.8,6.7,5.1c1.5,2.8,2.4,6.2,2.3,9.8c-0.1,3.8-4.2,5.7-6.9,5.9
			c-1.3,0.1-2.8,0.2-4.3,0.7c-1,0.3-4.6,3-6,4.3c-3.4,3.1-6.7,6.4-7.3,12.4c-0.5,5.4,6.8,4.4,7.8,4.4c1.1-0.1,5.2-1,10.6-4.6
			c0.9-0.6,3.8-2.7,6.4-3.8c2.2-0.9,3.9-0.7,4.7-0.2c1.9,1.2,2.9,3.3,1.1,6.1c-1.7,2.5-6.6,3.4-11,4.8c-4,1.2-13.3,6.6-23.2,5.8
			C321.2,378.8,317.6,377,316.4,373.4 M243.2,427.1c-0.8,0.4-2.6,0.9-6.7,2.3c-4.5,1.5-16.6,2.7-26.3,0.8
			c-9.7-1.9-48.7-14.6-39.2-62.6c4.1-20.6,16.5-35.3,43.1-40.1c12.2-2.2,22.4-3.3,34.9-3.1c12.5,0.2,26.7,2.6,39.4,8.8
			c1.1,0.5,2.5,1.8,3.7,2.3c1.2,0.6,4.2,0.2,5.9-1.7c1-1.8,0.9-3.3-1.1-5c-7.2-5.9-24.1-11-46.1-12c-22-1-31.7,0.9-42.5,1.7
			c-6.9,0.5-3.9-2.6-3.4-3.2c7.9-9.3,22-26,55-46.4c33-20.4,54-24.8,59-25.3c5.4-0.6,14.3,3.6,21.5,4.9c5,0.9,10.9,1.2,12.3-0.7
			c1.3-1.9,0.7-3.6-5.3-6.7c-6-3.1-22.1-6-26.1-5.8c-23.3,1.3-44.1,13.4-68.1,28c-24,14.6-47.7,36.2-54.9,44.2
			c-4.6,5.1-9.4,9.2-11.5,11.9c-1.2,1.5-5,3.2-7,3.7c-4.9,1.2-39,6.6-85.6,25c-48.3,19-66.9,35.8-72.3,44.2c-1.9,2.9-2.2,6.5,0,8.6
			c2,1.9,6.4,4.5,11.3,6.2c7.6,2.7,12.6,3.6,15.2,3.2c1.9-0.3,2.2-1.4,2.6-2.7c0.5-1.9-0.8-2.6-1.1-3.8c-0.5-1.9-3.6-3-8.4-4.2
			c-2.6-0.7-11-4.2-3.2-10.6c13.5-11.1,25.7-19.5,59.4-32.9c49.6-19.8,69.2-20.9,74.2-21.7c4.8-0.8,3,1.4,0.9,4.2
			c-8.4,13.1-10.5,18.4-12.1,30.2c-7.4,53.4,35.3,67.5,49.2,69.5c18.2,2.6,32.2-2.7,36-5.1c1.9-1.1,1.9-3,1.3-5.3
			C246.8,426.8,246.5,425.6,243.2,427.1"/>
		<path class="st0" d="M256.4,428.2c1.2-0.7,3.1-2.8,2.5-4.5c-1-2.5-3.5-1.9-4.9-1.3c-1.5,0.6-4.2,0.8-4.7,2.4
			c-0.5,1.4,0.2,1.8,0.5,2.8C250.5,429.7,253.5,429.7,256.4,428.2 M261.5,423.9c1.1,0.9,4,0.7,7.3-0.7c2.2-0.9,3.6-3.2,6.3-4.2
			c2-0.7,4.5-2.6,6.9-3.4c6.6-2.3,8.4-6.9,3.9-6.5c-6.4,0.7-22.7,8.3-24.2,9.3C259.2,419.9,259.7,422.4,261.5,423.9 M61,411.8
			c-1.9,0-3.1-0.8-4.2-1.9c-1-1-2.2-1-2.9-3.4c-0.5-1.8,3.3-3.3,4.9-3c2.3,0.4,5.8,0.9,8,0.6c3.8-0.6,6.6-0.3,8,1.2
			c1.3,1.4,1.8,2.2,0,4.2c-1.4,1.5-4.7,2.1-8.3,2.1C65.4,411.6,62.8,411.8,61,411.8 M78.9,406.6c-0.3-1,0.2-1.7,1-2.3
			c0.6-0.4,3.7-1.2,5-0.8c0.7,0.2,1.7,0.7,1.8,1.5c0.3,1.5,0.3,2.5-1.5,3.4c-1.4,0.7-1.2,1-2.8,1l-1.2-0.1
			C79.5,409.3,79.3,408,78.9,406.6"/>
	</g>
	<g>
		<path class="st1" d="M106,256.9v-53.6h29.5v9.1h-18.7v12.2h17.8v9.4h-17.9v13.6h18.8v9.3H106z M170.5,224
			c-7.9-1.6-11.9,3.5-11.9,15.4v17.5h-11v-42.7H158c0,2.2-0.3,5.6-0.8,8.6h0.2c2.1-5.4,6.2-10.1,13.6-9.5L170.5,224L170.5,224z
			 M200.1,239c0,5.2-3.7,10.3-9.1,10.3c-3.2,0-5.1-1.8-5.1-4.6c0-3.4,2.6-6.8,14.2-6.8V239z M211.4,256.9c-0.2-3.7-0.3-7.3-0.3-11
			v-17.8c0-9.3-3.9-14.9-17.6-14.9c-5.2,0-10.4,0.9-15.3,2.7l0.9,9.2c3.6-2.1,8.8-3.4,12.6-3.4c6.2,0,8.3,2.3,8.3,6.8v2.3
			c-14.5,0-24.7,5.4-24.7,15.7c0,6.9,4.5,11.3,12.2,11.3c6.4,0,11.6-3.4,13.7-8.2l0.1,0.1c-0.3,2.2-0.4,4.7-0.4,7.2H211.4z
			 M230.6,257.7c-3.1,0-6.2-0.3-8.9-0.8l0.3-9c2.7,0.7,5.9,1.3,9.2,1.3c4.2,0,7-1.7,7-4.6c0-7.6-17.3-3.3-17.3-17.8
			c0-7.5,6.1-13.7,18.1-13.7c2.5,0,5.2,0.3,7.8,0.8l-0.3,8.7c-2.6-0.7-5.2-1.1-7.9-1.1c-4.3,0-6.4,1.7-6.4,4.4
			c0,7,17.6,3.9,17.6,17.7C249.7,252.1,242.3,257.7,230.6,257.7 M310.7,256.9v-27.1c0-4.6-1-7.4-5.1-7.4c-4.8,0-9.8,5.7-9.8,14v20.5
			H285v-27.1c0-4.2-0.9-7.4-5.1-7.4c-5.1,0-9.8,6-9.8,14v20.5h-11v-42.7h10.4c0,2-0.2,5.2-0.6,7.7h0.2c2.6-5.2,7.7-8.6,14.1-8.6
			c7.6,0,10.8,4.5,11.8,8.6c2-4.2,6.7-8.6,13.9-8.6c8.3,0,12.8,4.6,12.8,14.3v29.4C321.7,256.9,310.7,256.9,310.7,256.9z
			 M360.4,256.9c0-2,0.1-5.3,0.5-7.6l-0.1-0.1c-2.6,5.1-7.5,8.6-14.5,8.6c-9.6,0-12.7-6.2-12.7-13.7v-30h10.9v27.3
			c0,4.5,1.2,7.1,5.3,7.1c5.6,0,9.9-6.4,9.9-13.8v-20.6h11v42.7C370.7,256.9,360.4,256.9,360.4,256.9z M390,257.7
			c-3.1,0-6.2-0.3-8.9-0.8l0.3-9c2.7,0.7,5.9,1.3,9.2,1.3c4.2,0,7-1.7,7-4.6c0-7.6-17.3-3.3-17.3-17.8c0-7.5,6.1-13.7,18.2-13.7
			c2.5,0,5.2,0.3,7.8,0.8l-0.3,8.7c-2.6-0.7-5.2-1.1-7.9-1.1c-4.3,0-6.4,1.7-6.4,4.4c0,7,17.5,3.9,17.5,17.7
			C409.1,252.1,401.7,257.7,390,257.7 M478.8,256.9l-3.8-25.6c-0.7-4.2-1.2-8.5-1.7-12.8h-0.2c-0.8,3.9-1.8,7.7-2.9,11.4l-8.5,26.9
			h-10.2l-8.2-24.8c-1.4-4.4-2.8-9.2-3.4-13.5h-0.2c-0.3,4.8-0.9,9-1.5,13.7l-3,24.7h-10.5l8.3-53.6H445l9,27.5
			c1.3,3.8,2.2,7.5,2.9,11.3h0.2c0.8-4.1,1.7-7.1,3-11.1l9.2-27.7h12l8.3,53.6H478.8L478.8,256.9z M521.9,257.6
			c-18.7,0-24.8-12.5-24.8-25.8c0-17,8.9-28.9,26.8-28.9c3.8,0,7.9,0.5,11.3,1.4l-1.1,9.4c-3.5-1-7.1-1.6-10.8-1.6
			c-10,0-14.9,7.5-14.9,17.9c0,11.7,4.8,18.2,15.6,18.2c3.3,0,7.6-1,10.4-2.2l1.2,9.2C531.7,256.7,526.9,257.6,521.9,257.6"/>
	</g>
</g>
</svg>
